<svg xmlns="http://www.w3.org/2000/svg" width="1400" height="700" viewBox="0 0 1400 700" role="img" aria-label="Cartoon hero illustration showing a canon comparison table across Christian traditions">
  <!-- Transparent background (no filled rect) -->

  <defs>
    <filter id="shadow" x="-20%" y="-20%" width="140%" height="140%">
      <feDropShadow dx="0" dy="10" stdDeviation="12" flood-color="#000" flood-opacity="0.18"></feDropShadow>
    </filter>

    <filter id="paper" x="-20%" y="-20%" width="140%" height="140%">
      <feTurbulence type="fractalNoise" baseFrequency="0.8" numOctaves="2" seed="9" result="n"></feTurbulence>
      <feColorMatrix type="matrix" values="
        1 0 0 0 0
        0 1 0 0 0
        0 0 1 0 0
        0 0 0 0.05 0"></feColorMatrix>
      <feComposite in="n" in2="SourceGraphic" operator="over"></feComposite>
    </filter>

    <style>
      .title { font: 800 46px/1.1 system-ui, -apple-system, Segoe UI, Roboto, Arial, sans-serif; }
      .sub   { font: 600 20px/1.35 system-ui, -apple-system, Segoe UI, Roboto, Arial, sans-serif; }
      .chip  { font: 800 14px/1 system-ui, -apple-system, Segoe UI, Roboto, Arial, sans-serif; letter-spacing: .4px; }
      .label { font: 700 14px/1 system-ui, -apple-system, Segoe UI, Roboto, Arial, sans-serif; }
      .tiny  { font: 600 12px/1 system-ui, -apple-system, Segoe UI, Roboto, Arial, sans-serif; opacity: .82; }
    </style>
  </defs>

  <!-- Main card -->
  <g transform="translate(90,70)" filter="url(#shadow)">
    <rect x="0" y="0" width="1220" height="560" rx="32" fill="#ffffff" opacity="0.92"></rect>
    <rect x="0" y="0" width="1220" height="560" rx="32" fill="#8000C8" opacity="0.06"></rect>

    <!-- Header -->
    <g transform="translate(60,70)">
      <text class="title" x="0" y="0" fill="#1f1f1f">Canon, Compared</text>
      <text class="sub" x="0" y="36" fill="#3b3b3b">A friendly map of what each tradition receives as Scripture.</text>

      <!-- purple underline -->
      <rect x="0" y="54" width="360" height="8" rx="4" fill="#8000C8" opacity="0.60"></rect>
    </g>

    <!-- Cartoon "tradition badges" (top row) -->
    <g transform="translate(60,150)">
      <!-- Badge helper: rounded card + spine + icon + chip -->
      <!-- Roman Catholic -->
      <g transform="translate(0,0)">
        <rect x="0" y="0" width="190" height="130" rx="22" fill="#fff" filter="url(#paper)"></rect>
        <rect x="0" y="0" width="190" height="130" rx="22" fill="#8000C8" opacity="0.10"></rect>
        <rect x="16" y="18" width="18" height="94" rx="9" fill="#8000C8" opacity="0.70"></rect>
        <circle cx="144" cy="40" r="18" fill="#8000C8" opacity="0.18"></circle>
        <path d="M144 27 v26 M131 40 h26" stroke="#8000C8" stroke-width="4" stroke-linecap="round" opacity="0.75"></path>
        <rect x="56" y="86" width="78" height="26" rx="13" fill="#8000C8"></rect>
        <text class="chip" x="80" y="104" fill="#fff">RC</text>
        <text class="label" x="46" y="72" fill="#333">Roman Catholic</text>
      </g>

      <!-- Eastern Orthodox -->
      <g transform="translate(210,0)">
        <rect x="0" y="0" width="190" height="130" rx="22" fill="#fff" filter="url(#paper)"></rect>
        <rect x="0" y="0" width="190" height="130" rx="22" fill="#2b2b2b" opacity="0.05"></rect>
        <rect x="16" y="18" width="18" height="94" rx="9" fill="#2b2b2b" opacity="0.22"></rect>
        <circle cx="144" cy="40" r="18" fill="#8000C8" opacity="0.12"></circle>
        <path d="M144 24 v34 M134 36 h20 M136 50 h16" stroke="#4a4a4a" stroke-width="4" stroke-linecap="round" opacity="0.75"></path>
        <rect x="56" y="86" width="78" height="26" rx="13" fill="#2b2b2b" opacity="0.75"></rect>
        <text class="chip" x="80" y="104" fill="#fff">EO</text>
        <text class="label" x="38" y="72" fill="#333">Eastern Orthodox</text>
      </g>

      <!-- Ethiopian Orthodox -->
      <g transform="translate(420,0)">
        <rect x="0" y="0" width="190" height="130" rx="22" fill="#fff" filter="url(#paper)"></rect>
        <rect x="0" y="0" width="190" height="130" rx="22" fill="#8000C8" opacity="0.08"></rect>
        <rect x="16" y="18" width="18" height="94" rx="9" fill="#8000C8" opacity="0.55"></rect>
        <circle cx="144" cy="40" r="18" fill="#8000C8" opacity="0.16"></circle>
        <path d="M136 49 C138 36, 150 36, 152 49 C154 60, 144 64, 144 72" fill="none" stroke="#8000C8" stroke-width="4" stroke-linecap="round" opacity="0.75"></path>
        <circle cx="144" cy="82" r="3.5" fill="#8000C8" opacity="0.80"></circle>
        <rect x="56" y="86" width="78" height="26" rx="13" fill="#8000C8" opacity="0.88"></rect>
        <text class="chip" x="80" y="104" fill="#fff">ET</text>
        <text class="label" x="28" y="72" fill="#333">Ethiopian Orthodox</text>
      </g>

      <!-- Protestant -->
      <g transform="translate(630,0)">
        <rect x="0" y="0" width="190" height="130" rx="22" fill="#fff" filter="url(#paper)"></rect>
        <rect x="0" y="0" width="190" height="130" rx="22" fill="#2b2b2b" opacity="0.05"></rect>
        <rect x="16" y="18" width="18" height="94" rx="9" fill="#2b2b2b" opacity="0.20"></rect>
        <circle cx="144" cy="40" r="18" fill="#8000C8" opacity="0.10"></circle>
        <path d="M134 56 L150 28 L164 56" fill="none" stroke="#4a4a4a" stroke-width="4" stroke-linecap="round" stroke-linejoin="round" opacity="0.75"></path>
        <rect x="56" y="86" width="78" height="26" rx="13" fill="#2b2b2b" opacity="0.70"></rect>
        <text class="chip" x="80" y="104" fill="#fff">PR</text>
        <text class="label" x="62" y="72" fill="#333">Protestant</text>
      </g>

      <!-- Jewish -->
      <g transform="translate(840,0)">
        <rect x="0" y="0" width="190" height="130" rx="22" fill="#fff" filter="url(#paper)"></rect>
        <rect x="0" y="0" width="190" height="130" rx="22" fill="#8000C8" opacity="0.06"></rect>
        <rect x="16" y="18" width="18" height="94" rx="9" fill="#8000C8" opacity="0.35"></rect>
        <circle cx="144" cy="40" r="18" fill="#8000C8" opacity="0.14"></circle>
        <path d="M144 24 L150 36 L164 36 L153 44 L158 58 L144 50 L130 58 L135 44 L124 36 L138 36 Z" fill="none" stroke="#8000C8" stroke-width="3.5" stroke-linejoin="round" opacity="0.78"></path>
        <rect x="56" y="86" width="78" height="26" rx="13" fill="#8000C8" opacity="0.80"></rect>
        <text class="chip" x="80" y="104" fill="#fff">JW</text>
        <text class="label" x="78" y="72" fill="#333">Jewish</text>
      </g>
    </g>

    <!-- Comparison table (cartoon grid) -->
    <g transform="translate(60,320)">
      <rect x="0" y="0" width="1100" height="190" rx="22" fill="#ffffff" opacity="0.96"></rect>
      <rect x="0" y="0" width="1100" height="190" rx="22" fill="#8000C8" opacity="0.05"></rect>

      <!-- Header row -->
      <g class="label" fill="#2b2b2b" opacity="0.92">
        <text x="24" y="34">Book</text>
        <text x="300" y="34">RC</text>
        <text x="380" y="34">EO</text>
        <text x="460" y="34">ET</text>
        <text x="540" y="34">PR</text>
        <text x="620" y="34">JW</text>
        <text x="720" y="34">Notes</text>
      </g>

      <!-- Divider line -->
      <line x1="20" y1="48" x2="1080" y2="48" stroke="#2b2b2b" stroke-width="2" opacity="0.10"></line>

      <!-- Row labels -->
      <g class="tiny" fill="#2b2b2b">
        <text x="24" y="84">Tobit</text>
        <text x="24" y="124">1 Maccabees</text>
        <text x="24" y="164">1 Enoch</text>
      </g>

      <!-- Checkmarks and dashes -->
      <g stroke="#2b2b2b" stroke-width="4" stroke-linecap="round" stroke-linejoin="round" opacity="0.85">
        <!-- Tobit -->
        <path d="M300 78 l8 8 l18 -20"></path>
        <path d="M380 78 l8 8 l18 -20"></path>
        <line x1="460" y1="82" x2="486" y2="82" opacity="0.35"></line>
        <line x1="540" y1="82" x2="566" y2="82" opacity="0.35"></line>
        <line x1="620" y1="82" x2="646" y2="82" opacity="0.35"></line>

        <!-- 1 Maccabees -->
        <path d="M300 118 l8 8 l18 -20"></path>
        <path d="M380 118 l8 8 l18 -20"></path>
        <line x1="460" y1="122" x2="486" y2="122" opacity="0.35"></line>
        <line x1="540" y1="122" x2="566" y2="122" opacity="0.35"></line>
        <line x1="620" y1="122" x2="646" y2="122" opacity="0.35"></line>

        <!-- 1 Enoch -->
        <line x1="300" y1="162" x2="326" y2="162" opacity="0.35"></line>
        <line x1="380" y1="162" x2="406" y2="162" opacity="0.35"></line>
        <path d="M460 158 l8 8 l18 -20" stroke="#8000C8" opacity="0.95"></path>
        <line x1="540" y1="162" x2="566" y2="162" opacity="0.35"></line>
        <line x1="620" y1="162" x2="646" y2="162" opacity="0.35"></line>
      </g>

      <!-- Notes -->
      <g class="tiny" fill="#3b3b3b">
        <text x="720" y="84">Deuterocanonical in RC/EO</text>
        <text x="720" y="124">Part of the “Greek” OT set</text>
        <text x="720" y="164">Canonical in Ethiopia</text>
      </g>

      <!-- Little legend chips -->
      <g transform="translate(24,12)">
        <rect x="0" y="0" width="86" height="28" rx="14" fill="#2b2b2b" opacity="0.08"></rect>
        <path d="M14 19 l6 6 l12 -14" stroke="#2b2b2b" stroke-width="3.5" fill="none" stroke-linecap="round" stroke-linejoin="round"></path>
        <text x="38" y="19" class="tiny" fill="#2b2b2b">In canon</text>

        <rect x="96" y="0" width="92" height="28" rx="14" fill="#8000C8" opacity="0.10"></rect>
        <line x1="110" y1="19" x2="132" y2="19" stroke="#2b2b2b" stroke-width="3.5" stroke-linecap="round" opacity="0.55"></line>
        <text x="144" y="19" class="tiny" fill="#2b2b2b">Not canon</text>
      </g>
    </g>
  </g>
</svg>
