<svg xmlns="http://www.w3.org/2000/svg" width="1400" height="700" viewBox="0 0 1400 700" role="img" aria-label="Cartoon hero illustration for Scripture, Side by Side">
  <!-- Transparent background (no filled rect) -->

  <defs>
    <filter id="shadow" x="-20%" y="-20%" width="140%" height="140%">
      <feDropShadow dx="0" dy="12" stdDeviation="14" flood-color="#000" flood-opacity="0.18"></feDropShadow>
    </filter>

    <filter id="paper" x="-20%" y="-20%" width="140%" height="140%">
      <feTurbulence type="fractalNoise" baseFrequency="0.85" numOctaves="2" seed="6" result="n"></feTurbulence>
      <feColorMatrix type="matrix" values="
        1 0 0 0 0
        0 1 0 0 0
        0 0 1 0 0
        0 0 0 0.05 0"></feColorMatrix>
      <feComposite in="n" in2="SourceGraphic" operator="over"></feComposite>
    </filter>

    <style>
      .title { font: 900 54px/1.05 system-ui, -apple-system, Segoe UI, Roboto, Arial, sans-serif; }
      .sub   { font: 600 22px/1.35 system-ui, -apple-system, Segoe UI, Roboto, Arial, sans-serif; }
      .btn   { font: 800 18px/1 system-ui, -apple-system, Segoe UI, Roboto, Arial, sans-serif; }
      .tiny  { font: 700 12px/1 system-ui, -apple-system, Segoe UI, Roboto, Arial, sans-serif; opacity: 0.78; letter-spacing: .35px; }
      .chip  { font: 900 12px/1 system-ui, -apple-system, Segoe UI, Roboto, Arial, sans-serif; letter-spacing: .6px; }
    </style>
  </defs>

  <!-- Card container -->
  <g transform="translate(90,70)" filter="url(#shadow)">
    <rect x="0" y="0" width="1220" height="560" rx="34" fill="#ffffff" opacity="0.92"></rect>
    <rect x="0" y="0" width="1220" height="560" rx="34" fill="#8000C8" opacity="0.06"></rect>

    <!-- Left text area -->
    <g transform="translate(70,95)">
      <text class="title" x="0" y="0" fill="#1f1f1f">Scripture, Side by Side</text>

      <text class="sub" x="0" y="54" fill="#3a3a3a">
        Compare Bible translations from the King James to Tyndale.
      </text>
      <text class="sub" x="0" y="86" fill="#3a3a3a">
        Read freely, search deeply, and follow cross-references without distractions.
      </text>

      <!-- CTA button (visual only, still transparent overall) -->
      <g transform="translate(0,120)">
        <rect x="0" y="0" width="260" height="54" rx="18" fill="#8000C8"></rect>
        <text class="btn" x="22" y="36" fill="#ffffff">Start reading now</text>
        <path d="M220 18 L240 27 L220 36" fill="none" stroke="#ffffff" stroke-width="4" stroke-linecap="round" stroke-linejoin="round" opacity="0.9"></path>
      </g>

      <!-- Little caption hint -->
      <text class="tiny" x="0" y="205" fill="#444">KJV ⇄ TYNDALE • search • cross-references</text>
    </g>

    <!-- Right illustration: two open books + linking cross-ref nodes -->
    <g transform="translate(730,95)">
      <!-- Soft ground shadow -->
      <ellipse cx="220" cy="380" rx="240" ry="30" fill="#000" opacity="0.10"></ellipse>

      <!-- Left open book (KJV) -->
      <g transform="translate(0,60)">
        <path d="M20 70
                 C10 70, 0 82, 0 98
                 V290
                 C0 312, 12 325, 34 325
                 H210
                 V90
                 C165 72, 90 70, 20 70 Z" fill="#f4f1ea" filter="url(#paper)"></path>
        <path d="M220 70
                 C230 70, 240 82, 240 98
                 V290
                 C240 312, 228 325, 206 325
                 H210
                 V90
                 C255 72, 300 70, 220 70 Z" fill="#faf7f1" filter="url(#paper)"></path>

        <!-- Spine -->
        <rect x="205" y="78" width="30" height="250" rx="14" fill="#e0dbcf"></rect>

        <!-- Page lines -->
        <g stroke="#b8b2a6" stroke-width="2" opacity="0.70">
          <line x1="28" y1="120" x2="188" y2="120"></line>
          <line x1="28" y1="145" x2="172" y2="145"></line>
          <line x1="28" y1="170" x2="184" y2="170"></line>
          <line x1="28" y1="195" x2="160" y2="195"></line>
        </g>
        <g stroke="#c0baad" stroke-width="2" opacity="0.70">
          <line x1="252" y1="120" x2="410" y2="120" opacity="0"></line>
        </g>

        <!-- Badge -->
        <g transform="translate(40,30)">
          <rect x="0" y="0" width="70" height="26" rx="13" fill="#2b2b2b" opacity="0.12"></rect>
          <text class="chip" x="16" y="18" fill="#2b2b2b">KJV</text>
        </g>

        <!-- Purple margin marker -->
        <rect x="10" y="115" width="6" height="120" rx="3" fill="#8000C8" opacity="0.75"></rect>
      </g>

      <!-- Right open book (Tyndale), slightly offset -->
      <g transform="translate(210,95)">
        <path d="M20 70
                 C10 70, 0 82, 0 98
                 V290
                 C0 312, 12 325, 34 325
                 H210
                 V90
                 C165 72, 90 70, 20 70 Z" fill="#f4f1ea" filter="url(#paper)"></path>
        <path d="M220 70
                 C230 70, 240 82, 240 98
                 V290
                 C240 312, 228 325, 206 325
                 H210
                 V90
                 C255 72, 300 70, 220 70 Z" fill="#faf7f1" filter="url(#paper)"></path>

        <!-- Spine -->
        <rect x="205" y="78" width="30" height="250" rx="14" fill="#e0dbcf"></rect>

        <!-- Page lines -->
        <g stroke="#b8b2a6" stroke-width="2" opacity="0.68">
          <line x1="28" y1="120" x2="188" y2="120"></line>
          <line x1="28" y1="145" x2="170" y2="145"></line>
          <line x1="28" y1="170" x2="182" y2="170"></line>
          <line x1="28" y1="195" x2="156" y2="195"></line>
        </g>

        <!-- Badge -->
        <g transform="translate(40,30)">
          <rect x="0" y="0" width="120" height="26" rx="13" fill="#8000C8" opacity="0.18"></rect>
          <text class="chip" x="16" y="18" fill="#8000C8">TYNDALE</text>
        </g>

        <!-- Neutral margin marker -->
        <rect x="232" y="115" width="6" height="120" rx="3" fill="#2b2b2b" opacity="0.30"></rect>
      </g>

      <!-- Cross-reference linking nodes between books -->
      <g transform="translate(110,150)">
        <!-- connector curve -->
        <path d="M60 40 C150 0, 220 0, 310 40" fill="none" stroke="#8000C8" stroke-width="4" opacity="0.35" stroke-linecap="round"></path>
        <path d="M60 85 C150 45, 220 45, 310 85" fill="none" stroke="#8000C8" stroke-width="4" opacity="0.22" stroke-linecap="round"></path>

        <!-- nodes -->
        <g>
          <circle cx="60" cy="40" r="10" fill="#8000C8" opacity="0.85"></circle>
          <circle cx="310" cy="40" r="10" fill="#8000C8" opacity="0.55"></circle>
          <circle cx="185" cy="22" r="7" fill="#8000C8" opacity="0.28"></circle>

          <circle cx="60" cy="85" r="8" fill="#2b2b2b" opacity="0.25"></circle>
          <circle cx="310" cy="85" r="8" fill="#2b2b2b" opacity="0.20"></circle>
          <circle cx="185" cy="68" r="6" fill="#8000C8" opacity="0.22"></circle>
        </g>

        <!-- magnifying glass (search) -->
        <g transform="translate(165,95)">
          <circle cx="18" cy="18" r="14" fill="none" stroke="#2b2b2b" stroke-width="4" opacity="0.55"></circle>
          <line x1="30" y1="30" x2="46" y2="46" stroke="#2b2b2b" stroke-width="4" stroke-linecap="round" opacity="0.55"></line>
        </g>
      </g>
    </g>
  </g>
</svg>
